<?xml version="1.0" encoding="UTF-8"?>
<svg id="Layer_1" xmlns="http://www.w3.org/2000/svg" version="1.1" viewBox="165 160 300 400">
  <!-- Generator: Adobe Illustrator 29.1.0, SVG Export Plug-In . SVG Version: 2.1.0 Build 142)  -->
  <defs>
    <style>
      .st0 {
        fill: #662d91;
      }

      .st1 {
        fill: #ea1c7a;
      }

      .st2 {
        fill: #f27916;
      }

      .st3 {
        fill: #020202;
      }
    </style>
  </defs>
  <path class="st1" d="M430.75,325.34c17.03-8.2,28.86-25.64,28.86-45.72v-10.2c0-27.88-22.81-50.7-50.7-50.7h-191.09v239.25h55.73v-1.06c3.49.69,7.1,1.06,10.79,1.06h130.25c30.67,0,55.77-25.1,55.77-55.77v-23.5c0-25.06-16.76-46.39-39.61-53.36ZM319.39,303.19c-.02-1.79,1.42-3.27,3.21-3.3l78.05-1c1.79-.02,3.27,1.42,3.3,3.21l.08,6.21c.02,1.79-1.42,3.27-3.21,3.3l-78.05,1c-1.79.02-3.27-1.42-3.3-3.21l-.08-6.21ZM401.7,380.88l-78.05,1c-1.79.02-3.27-1.42-3.3-3.21l-.08-6.21c-.02-1.79,1.42-3.27,3.21-3.3l78.05-1c1.79-.02,3.27,1.42,3.3,3.21l.08,6.21c.02,1.79-1.42,3.27-3.21,3.3Z"/>
  <path class="st2" d="M424.7,317.85c17.03-8.2,28.86-25.64,28.86-45.72v-10.2c0-27.88-22.81-50.7-50.7-50.7h-191.09v239.25h55.73v-1.06c3.49.69,7.1,1.06,10.79,1.06h130.25c30.67,0,55.77-25.1,55.77-55.77v-23.5c0-25.06-16.76-46.39-39.61-53.36ZM313.33,295.69c-.02-1.79,1.42-3.27,3.21-3.3l78.05-1c1.79-.02,3.27,1.42,3.3,3.21l.08,6.21c.02,1.79-1.42,3.27-3.21,3.3l-78.05,1c-1.79.02-3.27-1.42-3.3-3.21l-.08-6.21ZM395.64,373.39l-78.05,1c-1.79.02-3.27-1.42-3.3-3.21l-.08-6.21c-.02-1.79,1.42-3.27,3.21-3.3l78.05-1c1.79-.02,3.27,1.42,3.3,3.21l.08,6.21c.02,1.79-1.42,3.27-3.21,3.3Z"/>
  <path class="st0" d="M418.58,311.02c17.03-8.2,28.86-25.64,28.86-45.72v-10.2c0-27.88-22.81-50.7-50.7-50.7h-191.09v239.25h55.73v-1.06c3.49.69,7.1,1.06,10.79,1.06h130.25c30.67,0,55.77-25.1,55.77-55.77v-23.5c0-25.06-16.76-46.39-39.61-53.36ZM307.21,288.86c-.02-1.79,1.42-3.27,3.21-3.3l78.05-1c1.79-.02,3.27,1.42,3.3,3.21l.08,6.21c.02,1.79-1.42,3.27-3.21,3.3l-78.05,1c-1.79.02-3.27-1.42-3.3-3.21l-.08-6.21ZM389.52,366.55l-78.05,1c-1.79.02-3.27-1.42-3.3-3.21l-.08-6.21c-.02-1.79,1.42-3.27,3.21-3.3l78.05-1c1.79-.02,3.27,1.42,3.3,3.21l.08,6.21c.02,1.79-1.42,3.27-3.21,3.3Z"/>
  <path d="M414.32,304.16c17.03-8.2,28.86-25.64,28.86-45.72v-10.2c0-27.88-22.81-50.7-50.7-50.7h-191.09v239.25h55.73v-1.06c3.49.69,7.1,1.06,10.79,1.06h130.25c30.67,0,55.77-25.1,55.77-55.77v-23.5c0-25.06-16.76-46.39-39.61-53.36ZM302.96,282c-.02-1.79,1.42-3.27,3.21-3.3l78.05-1c1.79-.02,3.27,1.42,3.3,3.21l.08,6.21c.02,1.79-1.42,3.27-3.21,3.3l-78.05,1c-1.79.02-3.27-1.42-3.3-3.21l-.08-6.21ZM385.27,359.69l-78.05,1c-1.79.02-3.27-1.42-3.3-3.21l-.08-6.21c-.02-1.79,1.42-3.27,3.21-3.3l78.05-1c1.79-.02,3.27,1.42,3.3,3.21l.08,6.21c.02,1.79-1.42,3.27-3.21,3.3Z"/>
  <rect x="208.09" y="431.48" width="7.24" height="28.14" rx="2.4" ry="2.4" transform="translate(-223.17 212.71) rotate(-36.42)"/>
  <polygon class="st3" points="221.16 452.31 222.79 455.22 224.5 458.09 221.16 458.04 217.83 458.09 219.54 455.22 221.16 452.31"/>
</svg>